<?xml version="1.0" encoding="iso-8859-1"?>
<!-- Generator: Adobe Illustrator 23.0.3, SVG Export Plug-In . SVG Version: 6.00 Build 0)  -->
<svg version="1.1" id="Layer_1" xmlns="http://www.w3.org/2000/svg" xmlns:xlink="http://www.w3.org/1999/xlink" x="0px" y="0px"
	 viewBox="0 0 32 32" style="enable-background:new 0 0 32 32;" xml:space="preserve">
<g>
	<path d="M16,5C8.268,5,2,9.253,2,14.5S8.268,24,16,24s14-4.253,14-9.5S23.732,5,16,5z M17.5,22C11.701,22,7,18.866,7,15
		c0-3.866,4.701-7,10.5-7S28,11.134,28,15C28,18.866,23.299,22,17.5,22z"/>
</g>
<g>
	<path d="M22.5,11H14v15h4v-6h4.5c2.485,0,4.5-2.015,4.5-4.5S24.985,11,22.5,11z M21.5,17H18v-3h3.5c0.828,0,1.5,0.672,1.5,1.5
		S22.328,17,21.5,17z"/>
</g>
<g>
	<path d="M23.331,26l-2.864-5.208C20.199,20.303,19.686,20,19.128,20h-1.797v-1h3l2.774,0.694c0.786,0.196,1.463,0.694,1.885,1.384
		L28,26H23.331z"/>
</g>
</svg>